<svg width="8439" height="9387" viewBox="0 0 8439 9387" fill="none" xmlns="http://www.w3.org/2000/svg">
<path d="M1573.53 9260.37C1611.04 9268.48 842.67 9589.24 599.5 9083.5C351.86 8568.46 213.888 8253.68 400.133 7875.51C400.363 7875.04 400.788 7874.67 401.277 7874.49C784.888 7735.8 302.848 6274.37 128.653 6070.68C128.54 6070.55 128.471 6070.44 128.396 6070.28C7.77224 5819.86 -62.1669 4969.82 77.8091 4812.72C77.9434 4812.57 78.0742 4812.46 78.2472 4812.35C182.769 4749.43 333.97 4302.17 282.12 4058.08C282.038 4057.7 282.059 4057.34 282.202 4056.98C335.039 3921.27 212.133 3324.09 455.528 2951C699.141 2577.57 570.127 2136.85 881.128 1980.19C881.365 1980.07 881.638 1979.99 881.904 1979.97C1478.62 1939.14 1746.7 1149.87 1862.68 888.93C1978.68 627.93 1986.92 526.413 2331 290C2675.07 53.5867 3685 -70.4301 4282 113.572C4312.91 123.099 4425.28 179.78 4440.73 187.604C4441.73 188.111 4442.89 187.673 4443.43 186.69C4459.75 156.932 4518.97 139.089 4561.84 113.664C4561.95 113.602 4562.04 113.535 4562.13 113.455C4850.04 -137.5 5924.43 59.5013 6512.5 419.5C7100.12 779.224 6800.04 873.859 6921.08 1046.02C6921.29 1046.32 6921.6 1046.58 6921.93 1046.72C7827.57 1442.84 8089.1 2682.12 7772.03 3151.25C7771.26 3152.38 7771.86 3153.9 7773.17 3154.28C8504.12 3369.93 8587.7 5053.78 8242.08 5450.05C8241.56 5450.65 8241.47 5451.47 8241.81 5452.19C8495.11 5988.94 7938.35 6875.1 8428.7 7207.46C8429.19 7207.79 8429.53 7208.33 8429.59 7208.93C8471.01 7630.97 7819.37 8204.2 8282.29 9257.49C8282.85 9258.78 8281.97 9260.31 8280.56 9260.36L4892 9387L1573.53 9260.37Z" fill="#A52A2A"/>
</svg>
