<svg width="8188" height="9408" viewBox="0 0 8188 9408" fill="none" xmlns="http://www.w3.org/2000/svg">
<path d="M1322.52 9281.37C1360.03 9289.48 591.665 9610.24 348.495 9104.5L346.409 9100.16C99.7586 8587.19 -65.7672 8242.94 120.497 7865.5C370.902 7358.09 120.588 6562.79 31.04 6151.72C31.0066 6151.57 30.9612 6151.44 30.8932 6151.3C-89.457 5901.09 172.871 5022.67 322.926 4762C323.298 4761.35 323.239 4760.59 322.837 4759.96C138.919 4471.62 83.215 4277.46 31.0358 4033.71C31.0063 4033.57 30.9912 4033.44 30.9912 4033.3C30.9813 3796.66 13.5621 3206.3 323.5 2712C536.803 2371.81 479.107 2377.99 835.512 2061.88C836.095 2061.36 836.35 2060.5 836.128 2059.75C703.977 1616.5 958.7 1349.72 1172 1055.5C1385.5 761 1735.92 547.413 2079.99 311C2424.07 74.5865 3434 -49.4302 4031 134.572C4061.91 144.099 4174.28 200.78 4189.73 208.604C4190.73 209.111 4191.89 208.673 4192.43 207.689C4208.75 177.932 4267.97 160.088 4310.84 134.664C4310.94 134.602 4311.04 134.535 4311.13 134.455C4599.03 -116.524 5650.08 4.27548 6198.5 339.999C6745.81 675.043 6735.05 818.375 6735 1019.68C6735 1020.48 6735.48 1021.21 6736.21 1021.53C7641.23 1418.01 7838.23 2703.1 7521.02 3172.26C7520.25 3173.39 7520.86 3174.89 7522.17 3175.28C8253.11 3390.93 8336.69 5074.78 7991.08 5471.05C7990.55 5471.65 7990.47 5472.47 7990.81 5473.19C8244.11 6009.94 7687.35 6896.1 8177.7 7228.46C8178.19 7228.79 8178.53 7229.34 8178.59 7229.93C8220.01 7651.97 7568.37 8225.2 8031.28 9278.49C8031.85 9279.78 8030.96 9281.31 8029.55 9281.36L4641 9408L1322.52 9281.37Z" fill="#724C20"/>
</svg>
